<mxfile host="65bd71144e">
    <diagram id="2JHta7_HzGdZSQ1sL4aZ" name="第 1 页">
        <mxGraphModel dx="681" dy="655" grid="0" gridSize="10" guides="1" tooltips="1" connect="1" arrows="1" fold="1" page="0" pageScale="1" pageWidth="827" pageHeight="1169" math="0" shadow="0">
            <root>
                <mxCell id="0"/>
                <mxCell id="1" parent="0"/>
                <mxCell id="3" style="edgeStyle=none;html=1;exitX=0.5;exitY=1;exitDx=0;exitDy=0;entryX=0.5;entryY=0;entryDx=0;entryDy=0;fontSize=18;" edge="1" parent="1" source="5" target="11">
                    <mxGeometry relative="1" as="geometry">
                        <Array as="points">
                            <mxPoint x="560" y="290"/>
                            <mxPoint x="640" y="290"/>
                        </Array>
                    </mxGeometry>
                </mxCell>
                <mxCell id="4" style="edgeStyle=none;html=1;exitX=0.5;exitY=1;exitDx=0;exitDy=0;entryX=0.5;entryY=0;entryDx=0;entryDy=0;" edge="1" parent="1" source="5" target="14">
                    <mxGeometry relative="1" as="geometry">
                        <mxPoint x="880" y="320" as="targetPoint"/>
                        <Array as="points">
                            <mxPoint x="560" y="290"/>
                            <mxPoint x="800" y="290"/>
                        </Array>
                    </mxGeometry>
                </mxCell>
                <mxCell id="5" value="&lt;b&gt;&lt;font style=&quot;font-size: 18px;&quot;&gt;在线聊天室&lt;/font&gt;&lt;/b&gt;" style="rounded=1;whiteSpace=wrap;html=1;" vertex="1" parent="1">
                    <mxGeometry x="500" y="160" width="120" height="60" as="geometry"/>
                </mxCell>
                <mxCell id="6" value="&lt;span style=&quot;font-size: 18px;&quot;&gt;&lt;b&gt;用户身份认证&lt;/b&gt;&lt;/span&gt;" style="rounded=1;whiteSpace=wrap;html=1;" vertex="1" parent="1">
                    <mxGeometry x="250" y="372" width="120" height="60" as="geometry"/>
                </mxCell>
                <mxCell id="10" value="&lt;b style=&quot;border-color: var(--border-color);&quot;&gt;&lt;font style=&quot;border-color: var(--border-color); font-size: 18px;&quot;&gt;私聊与群聊模块&lt;/font&gt;&lt;/b&gt;" style="rounded=1;whiteSpace=wrap;html=1;" vertex="1" parent="1">
                    <mxGeometry x="407" y="372" width="136" height="60" as="geometry"/>
                </mxCell>
                <mxCell id="11" value="&lt;b style=&quot;border-color: var(--border-color); font-size: 18px;&quot;&gt;本地历史记录管理&lt;/b&gt;" style="rounded=1;whiteSpace=wrap;html=1;" vertex="1" parent="1">
                    <mxGeometry x="580" y="370" width="120" height="60" as="geometry"/>
                </mxCell>
                <mxCell id="12" value="" style="endArrow=classic;html=1;fontSize=18;entryX=0.5;entryY=0;entryDx=0;entryDy=0;exitX=0.5;exitY=1;exitDx=0;exitDy=0;" edge="1" parent="1" source="5" target="6">
                    <mxGeometry width="50" height="50" relative="1" as="geometry">
                        <mxPoint x="389.5" y="240" as="sourcePoint"/>
                        <mxPoint x="389.5" y="330" as="targetPoint"/>
                        <Array as="points">
                            <mxPoint x="560" y="290"/>
                            <mxPoint x="310" y="290"/>
                        </Array>
                    </mxGeometry>
                </mxCell>
                <mxCell id="14" value="&lt;b style=&quot;border-color: var(--border-color); font-size: 18px;&quot;&gt;服务端终端管理器&lt;/b&gt;" style="rounded=1;whiteSpace=wrap;html=1;" vertex="1" parent="1">
                    <mxGeometry x="740" y="370" width="120" height="60" as="geometry"/>
                </mxCell>
                <mxCell id="16" style="edgeStyle=none;html=1;exitX=0.5;exitY=1;exitDx=0;exitDy=0;" edge="1" parent="1" target="19">
                    <mxGeometry relative="1" as="geometry">
                        <mxPoint x="278.5" y="524" as="targetPoint"/>
                        <Array as="points">
                            <mxPoint x="311.5" y="482"/>
                            <mxPoint x="278.5" y="482"/>
                        </Array>
                        <mxPoint x="311.5" y="432" as="sourcePoint"/>
                    </mxGeometry>
                </mxCell>
                <mxCell id="17" style="edgeStyle=none;html=1;exitX=0.5;exitY=1;exitDx=0;exitDy=0;entryX=0.5;entryY=0;entryDx=0;entryDy=0;" edge="1" parent="1" target="18">
                    <mxGeometry relative="1" as="geometry">
                        <mxPoint x="381.5" y="522" as="targetPoint"/>
                        <Array as="points">
                            <mxPoint x="311.5" y="482"/>
                            <mxPoint x="341.5" y="482"/>
                        </Array>
                        <mxPoint x="311.5" y="432" as="sourcePoint"/>
                    </mxGeometry>
                </mxCell>
                <mxCell id="18" value="&lt;span style=&quot;font-size: 18px;&quot;&gt;&lt;b&gt;用户注册&lt;/b&gt;&lt;/span&gt;" style="rounded=1;whiteSpace=wrap;html=1;" vertex="1" parent="1">
                    <mxGeometry x="326.5" y="526" width="30" height="135" as="geometry"/>
                </mxCell>
                <mxCell id="19" value="&lt;b style=&quot;border-color: var(--border-color);&quot;&gt;&lt;font style=&quot;border-color: var(--border-color); font-size: 18px;&quot;&gt;用户登录&lt;/font&gt;&lt;/b&gt;" style="rounded=1;whiteSpace=wrap;html=1;" vertex="1" parent="1">
                    <mxGeometry x="263.5" y="526" width="30" height="135" as="geometry"/>
                </mxCell>
                <mxCell id="20" style="edgeStyle=none;html=1;exitX=0.5;exitY=1;exitDx=0;exitDy=0;" edge="1" parent="1" target="23">
                    <mxGeometry relative="1" as="geometry">
                        <mxPoint x="443.5" y="522" as="targetPoint"/>
                        <Array as="points">
                            <mxPoint x="476.5" y="480"/>
                            <mxPoint x="443.5" y="480"/>
                        </Array>
                        <mxPoint x="476.5" y="430" as="sourcePoint"/>
                    </mxGeometry>
                </mxCell>
                <mxCell id="21" style="edgeStyle=none;html=1;exitX=0.5;exitY=1;exitDx=0;exitDy=0;entryX=0.5;entryY=0;entryDx=0;entryDy=0;" edge="1" parent="1" target="22">
                    <mxGeometry relative="1" as="geometry">
                        <mxPoint x="546.5" y="520" as="targetPoint"/>
                        <Array as="points">
                            <mxPoint x="476.5" y="480"/>
                            <mxPoint x="509" y="480"/>
                        </Array>
                        <mxPoint x="476.5" y="430" as="sourcePoint"/>
                    </mxGeometry>
                </mxCell>
                <mxCell id="22" value="&lt;b&gt;&lt;font style=&quot;font-size: 18px;&quot;&gt;服务端用户与群组处理&lt;/font&gt;&lt;/b&gt;" style="rounded=1;whiteSpace=wrap;html=1;" vertex="1" parent="1">
                    <mxGeometry x="490" y="524" width="38.5" height="136" as="geometry"/>
                </mxCell>
                <mxCell id="23" value="&lt;b style=&quot;border-color: var(--border-color);&quot;&gt;&lt;font style=&quot;border-color: var(--border-color); font-size: 18px;&quot;&gt;客户端UI处理&lt;/font&gt;&lt;/b&gt;" style="rounded=1;whiteSpace=wrap;html=1;" vertex="1" parent="1">
                    <mxGeometry x="428.5" y="524" width="30" height="135" as="geometry"/>
                </mxCell>
                <mxCell id="24" style="edgeStyle=none;html=1;exitX=0.5;exitY=1;exitDx=0;exitDy=0;" edge="1" parent="1">
                    <mxGeometry relative="1" as="geometry">
                        <mxPoint x="760.6875" y="524" as="targetPoint"/>
                        <Array as="points">
                            <mxPoint x="801.5" y="480"/>
                            <mxPoint x="761" y="480"/>
                        </Array>
                        <mxPoint x="801.5" y="430" as="sourcePoint"/>
                    </mxGeometry>
                </mxCell>
                <mxCell id="25" style="edgeStyle=none;html=1;exitX=0.5;exitY=1;exitDx=0;exitDy=0;entryX=0.5;entryY=0;entryDx=0;entryDy=0;" edge="1" parent="1" target="26">
                    <mxGeometry relative="1" as="geometry">
                        <mxPoint x="871.5" y="520" as="targetPoint"/>
                        <Array as="points">
                            <mxPoint x="801.5" y="480"/>
                            <mxPoint x="831.5" y="480"/>
                        </Array>
                        <mxPoint x="801.5" y="430" as="sourcePoint"/>
                    </mxGeometry>
                </mxCell>
                <mxCell id="26" value="&lt;span style=&quot;font-size: 18px;&quot;&gt;&lt;b&gt;终端指令&lt;/b&gt;&lt;/span&gt;" style="rounded=1;whiteSpace=wrap;html=1;" vertex="1" parent="1">
                    <mxGeometry x="816.5" y="524" width="30" height="135" as="geometry"/>
                </mxCell>
                <mxCell id="27" value="&lt;b style=&quot;border-color: var(--border-color);&quot;&gt;&lt;font style=&quot;border-color: var(--border-color); font-size: 18px;&quot;&gt;数据库连接与SQL查询&lt;/font&gt;&lt;/b&gt;" style="rounded=1;whiteSpace=wrap;html=1;" vertex="1" parent="1">
                    <mxGeometry x="740" y="524" width="43.5" height="136" as="geometry"/>
                </mxCell>
                <mxCell id="28" style="edgeStyle=none;html=1;exitX=0.5;exitY=1;exitDx=0;exitDy=0;" edge="1" parent="1" target="31">
                    <mxGeometry relative="1" as="geometry">
                        <mxPoint x="608.5" y="524" as="targetPoint"/>
                        <Array as="points">
                            <mxPoint x="641.5" y="482"/>
                            <mxPoint x="608.5" y="482"/>
                        </Array>
                        <mxPoint x="641.5" y="432" as="sourcePoint"/>
                    </mxGeometry>
                </mxCell>
                <mxCell id="29" style="edgeStyle=none;html=1;exitX=0.5;exitY=1;exitDx=0;exitDy=0;entryX=0.5;entryY=0;entryDx=0;entryDy=0;" edge="1" parent="1" target="30">
                    <mxGeometry relative="1" as="geometry">
                        <mxPoint x="711.5" y="522" as="targetPoint"/>
                        <Array as="points">
                            <mxPoint x="641.5" y="482"/>
                            <mxPoint x="671.5" y="482"/>
                        </Array>
                        <mxPoint x="641.5" y="432" as="sourcePoint"/>
                    </mxGeometry>
                </mxCell>
                <mxCell id="30" value="&lt;b&gt;&lt;font style=&quot;font-size: 18px;&quot;&gt;记录读取载入&lt;/font&gt;&lt;/b&gt;" style="rounded=1;whiteSpace=wrap;html=1;" vertex="1" parent="1">
                    <mxGeometry x="656.5" y="526" width="30" height="135" as="geometry"/>
                </mxCell>
                <mxCell id="31" value="&lt;span style=&quot;font-size: 18px;&quot;&gt;&lt;b&gt;记录存储&lt;/b&gt;&lt;/span&gt;" style="rounded=1;whiteSpace=wrap;html=1;" vertex="1" parent="1">
                    <mxGeometry x="593.5" y="526" width="30" height="135" as="geometry"/>
                </mxCell>
                <mxCell id="32" value="" style="endArrow=classic;html=1;" edge="1" parent="1" source="5" target="10">
                    <mxGeometry width="50" height="50" relative="1" as="geometry">
                        <mxPoint x="450" y="360" as="sourcePoint"/>
                        <mxPoint x="500" y="310" as="targetPoint"/>
                        <Array as="points">
                            <mxPoint x="560" y="290"/>
                            <mxPoint x="475" y="290"/>
                        </Array>
                    </mxGeometry>
                </mxCell>
            </root>
        </mxGraphModel>
    </diagram>
</mxfile>